<?xml version="1.0" encoding="UTF-8"?>
<!DOCTYPE svg PUBLIC "-//W3C//DTD SVG 1.1//EN" "http://www.w3.org/Graphics/SVG/1.1/DTD/svg11.dtd">
<svg xmlns="http://www.w3.org/2000/svg" version="1.1" width="637px" height="358px" style="shape-rendering:geometricPrecision; text-rendering:geometricPrecision; image-rendering:optimizeQuality; fill-rule:evenodd; clip-rule:evenodd" xmlns:xlink="http://www.w3.org/1999/xlink">
<g><path style="opacity:0.162" fill="#050317" d="M 129.5,98.5 C 129.5,97.8333 129.167,97.5 128.5,97.5C 100.672,96.502 72.6716,96.1687 44.5,96.5C 44.7845,98.4147 44.4511,100.081 43.5,101.5C 32.1667,100.167 20.8333,100.167 9.5,101.5C 9.5,104.167 9.5,106.833 9.5,109.5C 10.9002,110.1 11.9002,111.1 12.5,112.5C 11.4168,112.461 10.4168,112.127 9.5,111.5C 8.50909,107.555 8.17575,103.555 8.5,99.5C 20.1667,99.5 31.8333,99.5 43.5,99.5C 43.5,98.1667 43.5,96.8333 43.5,95.5C 72.5,95.5 101.5,95.5 130.5,95.5C 130.737,96.791 130.404,97.791 129.5,98.5 Z"/></g>
<g><path style="opacity:0.977" fill="#fcf9f7" d="M 533.5,96.5 C 574.561,91.4311 605.061,106.764 625,142.5C 627.467,148.918 629.634,155.085 631.5,161C 637.028,202.603 621.028,233.27 583.5,253C 542.832,267.543 508.999,258.043 482,224.5C 469.481,205.337 465.147,184.67 469,162.5C 477.581,127.754 499.081,105.754 533.5,96.5 Z"/></g>
<g><path style="opacity:0.929" fill="#7b7819" d="M 9.5,101.5 C 20.8333,100.167 32.1667,100.167 43.5,101.5C 35.4931,101.334 27.4931,101.5 19.5,102C 20.7946,104.245 20.128,105.745 17.5,106.5C 17.762,105.022 17.4287,103.689 16.5,102.5C 15.8933,102.624 15.56,102.957 15.5,103.5C 13.8863,101.925 11.8863,101.259 9.5,101.5 Z"/></g>
<g><path style="opacity:1" fill="#eae508" d="M 9.5,101.5 C 11.8863,101.259 13.8863,101.925 15.5,103.5C 15.2148,105.288 15.5481,106.955 16.5,108.5C 17.2975,108.043 17.6309,107.376 17.5,106.5C 20.128,105.745 20.7946,104.245 19.5,102C 27.4931,101.5 35.4931,101.334 43.5,101.5C 43.3379,103.527 43.5045,105.527 44,107.5C 45.0674,108.191 46.2341,108.691 47.5,109C 42.5294,110.011 37.8627,109.511 33.5,107.5C 33.3068,105.914 32.9734,104.247 32.5,102.5C 31.7492,103.376 31.2492,104.376 31,105.5C 29.9348,101.622 29.1015,101.622 28.5,105.5C 28.7833,108.742 29.6166,109.076 31,106.5C 31.7083,107.381 32.5416,108.047 33.5,108.5C 32.5514,109.152 31.3847,109.486 30,109.5C 28.1862,108.514 26.0195,107.847 23.5,107.5C 24.0906,106.849 24.7573,106.182 25.5,105.5C 24.5,104.5 23.5,103.5 22.5,102.5C 22.1667,103.5 21.8333,104.5 21.5,105.5C 21.6399,107.03 22.3065,108.03 23.5,108.5C 19.03,109.486 14.3633,109.819 9.5,109.5C 9.5,106.833 9.5,104.167 9.5,101.5 Z"/></g>
<g><path style="opacity:1" fill="#131108" d="M 17.5,106.5 C 17.6309,107.376 17.2975,108.043 16.5,108.5C 15.5481,106.955 15.2148,105.288 15.5,103.5C 15.56,102.957 15.8933,102.624 16.5,102.5C 17.4287,103.689 17.762,105.022 17.5,106.5 Z"/></g>
<g><path style="opacity:1" fill="#414018" d="M 23.5,107.5 C 23.5,107.833 23.5,108.167 23.5,108.5C 22.3065,108.03 21.6399,107.03 21.5,105.5C 21.8333,104.5 22.1667,103.5 22.5,102.5C 23.5,103.5 24.5,104.5 25.5,105.5C 24.7573,106.182 24.0906,106.849 23.5,107.5 Z"/></g>
<g><path style="opacity:1" fill="#15140a" d="M 33.5,107.5 C 33.5,107.833 33.5,108.167 33.5,108.5C 32.5416,108.047 31.7083,107.381 31,106.5C 29.6166,109.076 28.7833,108.742 28.5,105.5C 29.1015,101.622 29.9348,101.622 31,105.5C 31.2492,104.376 31.7492,103.376 32.5,102.5C 32.9734,104.247 33.3068,105.914 33.5,107.5 Z"/></g>
<g><path style="opacity:0.275" fill="#070928" d="M 129.5,99.5 C 141.5,99.5 153.5,99.5 165.5,99.5C 165.824,103.555 165.491,107.555 164.5,111.5C 163.583,112.127 162.583,112.461 161.5,112.5C 161.821,110.952 162.821,110.285 164.5,110.5C 164.5,107.167 164.5,103.833 164.5,100.5C 152.655,100.828 140.988,100.495 129.5,99.5 Z"/></g>
<g><path style="opacity:1" fill="#78750f" d="M 128.5,97.5 C 129.167,97.5 129.5,97.8333 129.5,98.5C 129.5,98.8333 129.5,99.1667 129.5,99.5C 140.988,100.495 152.655,100.828 164.5,100.5C 164.5,103.833 164.5,107.167 164.5,110.5C 162.821,110.285 161.821,110.952 161.5,112.5C 161.167,112.5 160.833,112.5 160.5,112.5C 160.167,112.5 159.833,112.5 159.5,112.5C 155.03,111.514 150.363,111.181 145.5,111.5C 145.201,113.604 145.534,115.604 146.5,117.5C 147.736,116.754 149.07,116.421 150.5,116.5C 149.4,117.558 148.066,118.392 146.5,119C 148.618,120.082 150.618,121.249 152.5,122.5C 151.833,122.5 151.167,122.5 150.5,122.5C 148.716,122.107 147.05,121.441 145.5,120.5C 144.676,117.236 144.342,113.902 144.5,110.5C 137.159,110.666 129.826,110.5 122.5,110C 121.062,109.781 119.729,109.281 118.5,108.5C 97.5106,107.5 76.5106,107.167 55.5,107.5C 55.6198,110.205 54.6198,110.872 52.5,109.5C 44.3709,110.138 36.3709,110.805 28.5,111.5C 23.8215,111.334 19.1548,111.501 14.5,112C 16.0664,112.608 17.3998,113.442 18.5,114.5C 16.8333,114.5 15.1667,114.5 13.5,114.5C 13.1667,113.833 12.8333,113.167 12.5,112.5C 11.9002,111.1 10.9002,110.1 9.5,109.5C 14.3633,109.819 19.03,109.486 23.5,108.5C 23.5,108.167 23.5,107.833 23.5,107.5C 26.0195,107.847 28.1862,108.514 30,109.5C 31.3847,109.486 32.5514,109.152 33.5,108.5C 33.5,108.167 33.5,107.833 33.5,107.5C 37.8627,109.511 42.5294,110.011 47.5,109C 46.2341,108.691 45.0674,108.191 44,107.5C 43.5045,105.527 43.3379,103.527 43.5,101.5C 44.4511,100.081 44.7845,98.4147 44.5,96.5C 72.6716,96.1687 100.672,96.502 128.5,97.5 Z"/></g>
<g><path style="opacity:1" fill="#eeeb04" d="M 128.5,97.5 C 128.5,100.5 128.5,103.5 128.5,106.5C 100.833,106.5 73.1667,106.5 45.5,106.5C 45.5,103.5 45.5,100.5 45.5,97.5C 73.1667,97.5 100.833,97.5 128.5,97.5 Z"/></g>
<g><path style="opacity:1" fill="#e7e20a" d="M 141.5,108.5 C 142.097,108.265 142.43,107.765 142.5,107C 138.341,103.989 139.008,102.822 144.5,103.5C 145.167,110.167 145.833,110.167 146.5,103.5C 147.5,103.5 148.5,103.5 149.5,103.5C 149.215,105.288 149.548,106.955 150.5,108.5C 151.192,107.975 151.692,107.308 152,106.5C 153.133,108.211 154.633,108.711 156.5,108C 154.808,106.599 154.141,104.766 154.5,102.5C 149.156,102.334 143.823,102.501 138.5,103C 138.043,103.414 137.709,103.914 137.5,104.5C 138.826,105.642 139.826,106.976 140.5,108.5C 139.292,107.766 137.959,107.433 136.5,107.5C 134.871,100.875 133.204,100.875 131.5,107.5C 132.962,107.308 134.628,107.641 136.5,108.5C 131.993,109.893 129.66,109.893 129.5,108.5C 129.5,106.167 129.5,103.833 129.5,101.5C 140.833,101.5 152.167,101.5 163.5,101.5C 163.5,104.167 163.5,106.833 163.5,109.5C 155.981,109.825 148.648,109.492 141.5,108.5 Z"/></g>
<g><path style="opacity:1" fill="#3f3b0f" d="M 103.5,99.5 C 104.832,101.132 106.165,102.799 107.5,104.5C 108.298,102.922 108.798,101.256 109,99.5C 109.885,106.078 111.052,106.078 112.5,99.5C 114.575,103.823 113.242,105.823 108.5,105.5C 106.616,105.284 104.949,104.617 103.5,103.5C 102.808,104.025 102.308,104.692 102,105.5C 101.591,103.305 102.091,101.305 103.5,99.5 Z"/></g>
<g><path style="opacity:1" fill="#424012" d="M 65.5,98.5 C 69.6189,98.1989 71.6189,100.199 71.5,104.5C 72.948,97.9216 74.1146,97.9216 75,104.5C 76.6819,103.135 76.8486,101.635 75.5,100C 79.0257,100.614 79.3591,102.28 76.5,105C 74,105.167 71.5,105.333 69,105.5C 66.05,105.432 63.3834,104.766 61,103.5C 60.5774,104.956 59.7441,105.456 58.5,105C 59.218,103.013 60.218,101.179 61.5,99.5C 64.7603,106.435 66.0937,106.102 65.5,98.5 Z"/></g>
<g><path style="opacity:1" fill="#3f3d10" d="M 141.5,108.5 C 141.167,108.5 140.833,108.5 140.5,108.5C 139.826,106.976 138.826,105.642 137.5,104.5C 137.709,103.914 138.043,103.414 138.5,103C 143.823,102.501 149.156,102.334 154.5,102.5C 154.141,104.766 154.808,106.599 156.5,108C 154.633,108.711 153.133,108.211 152,106.5C 151.692,107.308 151.192,107.975 150.5,108.5C 149.548,106.955 149.215,105.288 149.5,103.5C 148.5,103.5 147.5,103.5 146.5,103.5C 145.833,110.167 145.167,110.167 144.5,103.5C 139.008,102.822 138.341,103.989 142.5,107C 142.43,107.765 142.097,108.265 141.5,108.5 Z"/></g>
<g><path style="opacity:1" fill="#211f0c" d="M 88.5,103.5 C 88.4431,102.391 88.1098,101.391 87.5,100.5C 87.81,99.2617 88.31,99.2617 89,100.5C 89.7065,102.081 90.5399,103.581 91.5,105C 89.8425,105.725 88.8425,105.225 88.5,103.5 Z"/></g>
<g><path style="opacity:1" fill="#82801c" d="M 87.5,100.5 C 88.1098,101.391 88.4431,102.391 88.5,103.5C 82.1346,107.413 79.1346,105.746 79.5,98.5C 80.5,98.5 81.5,98.5 82.5,98.5C 82.5267,106.394 83.1934,106.394 84.5,98.5C 85.2811,99.7287 85.7811,101.062 86,102.5C 86.2784,101.584 86.7784,100.918 87.5,100.5 Z"/></g>
<g><path style="opacity:1" fill="#545219" d="M 136.5,107.5 C 136.5,107.833 136.5,108.167 136.5,108.5C 134.628,107.641 132.962,107.308 131.5,107.5C 133.204,100.875 134.871,100.875 136.5,107.5 Z"/></g>
<g><path style="opacity:1" fill="#2b290d" d="M 157.5,102.5 C 159.27,103.856 160.603,105.689 161.5,108C 160.552,108.483 159.552,108.649 158.5,108.5C 158.167,106.5 157.833,104.5 157.5,102.5 Z"/></g>
<g><path style="opacity:1" fill="#c29b8a" d="M 534.5,105.5 C 536.662,105.897 537.995,107.231 538.5,109.5C 539.281,108.271 539.781,106.938 540,105.5C 540.346,107.218 540.846,108.885 541.5,110.5C 538.233,111.992 536.066,110.992 535,107.5C 534.58,112.464 533.747,112.631 532.5,108C 533.056,106.989 533.722,106.156 534.5,105.5 Z"/></g>
<g><path style="opacity:0.197" fill="#101029" d="M 145.5,120.5 C 144.883,120.389 144.383,120.056 144,119.5C 143.503,116.854 143.336,114.187 143.5,111.5C 134.833,111.5 126.167,111.5 117.5,111.5C 117.5,110.5 117.5,109.5 117.5,108.5C 97.1667,108.5 76.8333,108.5 56.5,108.5C 56.5,109.5 56.5,110.5 56.5,111.5C 47.5,111.5 38.5,111.5 29.5,111.5C 29.8174,114.572 29.4841,117.572 28.5,120.5C 26.0207,122.076 23.354,123.076 20.5,123.5C 23.0094,122.079 25.3428,120.412 27.5,118.5C 28.4682,116.393 28.8016,114.059 28.5,111.5C 36.3709,110.805 44.3709,110.138 52.5,109.5C 54.6198,110.872 55.6198,110.205 55.5,107.5C 76.5106,107.167 97.5106,107.5 118.5,108.5C 119.729,109.281 121.062,109.781 122.5,110C 129.826,110.5 137.159,110.666 144.5,110.5C 144.342,113.902 144.676,117.236 145.5,120.5 Z"/></g>
<g><path style="opacity:1" fill="#a87d69" d="M 544.5,104.5 C 546.085,105.474 547.085,106.974 547.5,109C 547.167,109.167 546.833,109.333 546.5,109.5C 545.749,108.624 545.249,107.624 545,106.5C 544.033,107.678 543.533,109.011 543.5,110.5C 542.229,108.194 542.562,106.194 544.5,104.5 Z"/></g>
<g><path style="opacity:1" fill="#a46443" d="M 528.5,106.5 C 529.117,106.611 529.617,106.944 530,107.5C 530.273,109.101 530.773,110.601 531.5,112C 531.167,112.167 530.833,112.333 530.5,112.5C 529.232,110.696 528.565,108.696 528.5,106.5 Z"/></g>
<g><path style="opacity:1" fill="#edea03" d="M 159.5,112.5 C 159.167,112.5 158.833,112.5 158.5,112.5C 155.52,113.323 152.853,114.657 150.5,116.5C 149.07,116.421 147.736,116.754 146.5,117.5C 145.534,115.604 145.201,113.604 145.5,111.5C 150.363,111.181 155.03,111.514 159.5,112.5 Z"/></g>
<g><path style="opacity:1" fill="#ddda12" d="M 13.5,114.5 C 15.1667,114.5 16.8333,114.5 18.5,114.5C 21.0878,116.625 24.0878,117.958 27.5,118.5C 25.3428,120.412 23.0094,122.079 20.5,123.5C 20.1583,124.338 19.4916,124.672 18.5,124.5C 16.6203,124.229 15.287,124.896 14.5,126.5C 13.5,126.5 12.5,126.5 11.5,126.5C 11.5,125.5 11.5,124.5 11.5,123.5C 11.5,123.167 11.5,122.833 11.5,122.5C 12.0431,122.44 12.3764,122.107 12.5,121.5C 11.3112,120.571 9.97782,120.238 8.5,120.5C 7.52909,119.038 7.86242,117.705 9.5,116.5C 10.5137,115.326 11.847,114.66 13.5,114.5 Z"/></g>
<g><path style="opacity:1" fill="#efeb04" d="M 28.5,111.5 C 28.8016,114.059 28.4682,116.393 27.5,118.5C 24.9122,116.375 21.9122,115.042 18.5,114.5C 17.3998,113.442 16.0664,112.608 14.5,112C 19.1548,111.501 23.8215,111.334 28.5,111.5 Z"/></g>
<g><path style="opacity:1" fill="#6a6814" d="M 158.5,112.5 C 158.5,113.167 158.5,113.833 158.5,114.5C 155.833,115.167 153.167,115.833 150.5,116.5C 152.853,114.657 155.52,113.323 158.5,112.5 Z"/></g>
<g><path style="opacity:1" fill="#68651e" d="M 18.5,114.5 C 21.9122,115.042 24.9122,116.375 27.5,118.5C 24.0878,117.958 21.0878,116.625 18.5,114.5 Z"/></g>
<g><path style="opacity:1" fill="#eae70a" d="M 158.5,114.5 C 161.301,115.735 163.968,117.235 166.5,119C 162.672,119.871 160.672,122.371 160.5,126.5C 157.807,125.153 155.14,123.82 152.5,122.5C 150.618,121.249 148.618,120.082 146.5,119C 148.066,118.392 149.4,117.558 150.5,116.5C 153.167,115.833 155.833,115.167 158.5,114.5 Z"/></g>
<g><path style="opacity:1" fill="#975f43" d="M 589.5,115.5 C 590.239,115.369 590.906,115.536 591.5,116C 589.647,117.731 588.981,119.564 589.5,121.5C 588.306,119.484 588.306,117.484 589.5,115.5 Z"/></g>
<g><path style="opacity:0.71" fill="#272528" d="M 9.5,116.5 C 7.86242,117.705 7.52909,119.038 8.5,120.5C 3.43308,119.192 3.76641,117.859 9.5,116.5 Z"/></g>
<g><path style="opacity:0.278" fill="#2c272f" d="M 158.5,112.5 C 158.833,112.5 159.167,112.5 159.5,112.5C 159.833,112.5 160.167,112.5 160.5,112.5C 163.063,114.808 165.73,117.142 168.5,119.5C 166.696,120.768 164.696,121.435 162.5,121.5C 162.993,123.806 163.326,126.139 163.5,128.5C 158.749,127.29 154.416,125.29 150.5,122.5C 151.167,122.5 151.833,122.5 152.5,122.5C 155.14,123.82 157.807,125.153 160.5,126.5C 160.672,122.371 162.672,119.871 166.5,119C 163.968,117.235 161.301,115.735 158.5,114.5C 158.5,113.833 158.5,113.167 158.5,112.5 Z"/></g>
<g><path style="opacity:0.286" fill="#15141b" d="M 8.5,120.5 C 9.97782,120.238 11.3112,120.571 12.5,121.5C 12.3764,122.107 12.0431,122.44 11.5,122.5C 10.5,121.833 9.5,121.167 8.5,120.5 Z"/></g>
<g><path style="opacity:1" fill="#f75d11" d="M 527.5,121.5 C 540.361,131.437 554.361,139.604 569.5,146C 568.003,148.207 566.003,148.874 563.5,148C 551.16,142.895 539.16,137.229 527.5,131C 526.106,130.044 525.439,128.711 525.5,127C 525.954,125.061 526.621,123.228 527.5,121.5 Z"/></g>
<g><path style="opacity:0.247" fill="#21202d" d="M 18.5,124.5 C 17.4863,125.674 16.153,126.34 14.5,126.5C 15.287,124.896 16.6203,124.229 18.5,124.5 Z"/></g>
<g><path style="opacity:0.443" fill="#1b1a1f" d="M 11.5,123.5 C 11.5,124.5 11.5,125.5 11.5,126.5C 12.5,126.5 13.5,126.5 14.5,126.5C 13.2015,128.099 11.5348,128.599 9.5,128C 10.0989,126.378 10.7656,124.878 11.5,123.5 Z"/></g>
<g><path style="opacity:1" fill="#c6a698" d="M 497.5,125.5 C 503.802,127.034 504.135,129.701 498.5,133.5C 497.167,132.5 495.833,131.5 494.5,130.5C 495.868,129.406 497.035,129.74 498,131.5C 497.865,129.575 497.698,127.575 497.5,125.5 Z"/></g>
<g><path style="opacity:1" fill="#c2a294" d="M 600.5,124.5 C 603.487,124.948 604.487,126.448 603.5,129C 605.619,129.098 607.286,129.931 608.5,131.5C 608.167,131.833 607.833,132.167 607.5,132.5C 605.397,130.12 604.23,130.787 604,134.5C 602.439,132.064 600.272,129.898 597.5,128C 599.426,127.578 600.426,126.411 600.5,124.5 Z"/></g>
<g><path style="opacity:1" fill="#c29a8a" d="M 490.5,132.5 C 490.56,131.957 490.893,131.624 491.5,131.5C 493.772,132.441 495.772,133.774 497.5,135.5C 495.879,137.423 494.046,139.089 492,140.5C 490.703,139.216 489.536,139.383 488.5,141C 489.536,142.617 490.703,142.784 492,141.5C 492.432,142.6 491.932,143.267 490.5,143.5C 486.521,141.164 486.854,138.997 491.5,137C 491.129,135.397 490.795,133.897 490.5,132.5 Z"/></g>
<g><path style="opacity:1" fill="#caa899" d="M 607.5,133.5 C 608.552,133.351 609.552,133.517 610.5,134C 612.966,136.932 614.633,140.265 615.5,144C 613.699,145.387 613.032,146.887 613.5,148.5C 610.921,147.112 610.921,145.612 613.5,144C 608.279,143.458 608.279,142.624 613.5,141.5C 612.833,141.167 612.167,140.833 611.5,140.5C 609.845,141.388 608.178,141.888 606.5,142C 607.167,141.333 607.833,140.667 608.5,140C 605.118,138.13 604.784,135.964 607.5,133.5 Z"/></g>
<g><path style="opacity:0.584" fill="#000000" d="M 243.5,163.5 C 246.057,158.037 248.39,152.37 250.5,146.5C 252.003,145.948 253.669,145.948 255.5,146.5C 257.5,153.167 259.5,159.833 261.5,166.5C 262.5,166.5 263.5,166.5 264.5,166.5C 264.666,160.824 264.499,155.157 264,149.5C 263.075,148.953 262.242,148.287 261.5,147.5C 267.137,146.337 272.804,146.17 278.5,147C 286.759,149.752 289.259,155.252 286,163.5C 284.437,166.728 281.937,168.895 278.5,170C 271.19,170.615 264.023,171.115 257,171.5C 256.173,170.338 255.34,169.171 254.5,168C 255.708,165.588 254.874,164.088 252,163.5C 250.393,163.769 249.226,164.603 248.5,166C 251.806,167.544 252.14,169.378 249.5,171.5C 247.298,170.22 245.132,170.22 243,171.5C 242.612,169.285 241.612,167.952 240,167.5C 238.581,168.46 237.081,169.293 235.5,170C 227.234,170.744 219.4,171.244 212,171.5C 209.828,170.491 208.662,168.824 208.5,166.5C 209.5,166.5 210.5,166.5 211.5,166.5C 211.828,161.125 211.495,155.792 210.5,150.5C 209.914,150.709 209.414,151.043 209,151.5C 207.671,158.092 207.171,164.759 207.5,171.5C 206.325,171.719 205.325,171.386 204.5,170.5C 200.475,165.642 196.642,160.642 193,155.5C 192.672,160.706 193.505,165.706 195.5,170.5C 191.491,170.961 187.824,170.128 184.5,168C 185.333,167.167 186.167,166.333 187,165.5C 187.195,160.582 187.695,155.749 188.5,151C 186.591,150.552 185.424,151.385 185,153.5C 184.891,158.614 184.224,163.614 183,168.5C 175.603,173.443 169.603,172.11 165,164.5C 164.667,159.5 164.333,154.5 164,149.5C 163.308,148.975 162.808,148.308 162.5,147.5C 166.816,145.923 170.816,146.423 174.5,149C 173.975,149.692 173.308,150.192 172.5,150.5C 171.167,155.833 171.167,161.167 172.5,166.5C 175.118,167.574 177.285,166.907 179,164.5C 179.667,160.167 179.667,155.833 179,151.5C 178.365,150.034 177.531,148.7 176.5,147.5C 177.833,147.167 179.167,146.833 180.5,146.5C 185.143,146.313 189.81,146.813 194.5,148C 197.123,151.412 199.623,154.912 202,158.5C 203.189,154.291 202.356,150.624 199.5,147.5C 211.557,147.06 223.557,146.893 235.5,147C 243.587,149.724 246.254,155.224 243.5,163.5 Z M 220.5,149.5 C 221.816,155.013 221.816,160.68 220.5,166.5C 219.325,167.855 218.325,167.688 217.5,166C 218.833,161.333 218.833,156.667 217.5,152C 218.571,151.148 219.571,150.315 220.5,149.5 Z M 230.5,150.5 C 232.5,150.833 234.5,151.167 236.5,151.5C 237.991,155.561 237.824,159.561 236,163.5C 233.79,166.29 230.956,167.123 227.5,166C 227.906,160.622 228.906,155.456 230.5,150.5 Z M 273.5,150.5 C 275.5,150.833 277.5,151.167 279.5,151.5C 281.592,157.049 280.592,161.882 276.5,166C 274.5,166.667 272.5,166.667 270.5,166C 270.906,160.622 271.906,155.456 273.5,150.5 Z M 243.5,163.5 C 243.539,164.756 243.039,165.756 242,166.5C 241.415,165.002 241.915,164.002 243.5,163.5 Z"/></g>
<g><path style="opacity:0.584" fill="#000000" d="M 307.5,145.5 C 308.75,145.577 309.583,146.244 310,147.5C 315.75,146.359 321.584,146.193 327.5,147C 336.074,149.652 338.574,155.152 335,163.5C 333.437,166.728 330.937,168.895 327.5,170C 322.78,170.221 318.113,170.721 313.5,171.5C 312.808,170.975 312.308,170.308 312,169.5C 311.612,170.428 310.945,171.095 310,171.5C 305.873,171.27 301.706,171.27 297.5,171.5C 295.679,170.272 294.679,168.606 294.5,166.5C 295.5,166.5 296.5,166.5 297.5,166.5C 297.666,161.156 297.499,155.823 297,150.5C 296.355,149.354 295.522,148.354 294.5,147.5C 298.982,146.833 303.316,146.166 307.5,145.5 Z M 312.5,149.5 C 313.652,154.985 313.818,160.651 313,166.5C 312.667,165.167 312.333,163.833 312,162.5C 311.667,162.833 311.333,163.167 311,163.5C 310.692,162.692 310.192,162.025 309.5,161.5C 308.376,162.914 307.376,164.414 306.5,166C 305.5,166.667 304.5,166.667 303.5,166C 304.833,164.333 304.833,162.667 303.5,161C 312.154,160.22 312.487,158.387 304.5,155.5C 303.691,153.929 303.357,152.262 303.5,150.5C 306.321,150.316 307.988,151.649 308.5,154.5C 309.689,155.429 311.022,155.762 312.5,155.5C 312.5,153.5 312.5,151.5 312.5,149.5 Z M 322.5,150.5 C 324.5,150.833 326.5,151.167 328.5,151.5C 330.592,157.049 329.592,161.882 325.5,166C 323.866,166.494 322.199,166.66 320.5,166.5C 319.963,160.865 320.63,155.532 322.5,150.5 Z"/></g>
<g><path style="opacity:0.567" fill="#000000" d="M 388.5,145.5 C 390.17,145.751 391.67,146.418 393,147.5C 395.233,154.951 398.233,161.951 402,168.5C 404.449,163.127 405.115,157.46 404,151.5C 402.812,152.563 402.312,153.897 402.5,155.5C 400.857,155.52 399.524,154.853 398.5,153.5C 397.526,151.257 397.192,148.924 397.5,146.5C 409.717,147.441 421.717,147.607 433.5,147C 435.242,150.701 436.909,154.535 438.5,158.5C 442.105,154.587 442.105,150.92 438.5,147.5C 441.446,146.345 444.446,146.179 447.5,147C 448.428,147.388 449.095,148.055 449.5,149C 445.955,155.929 442.789,163.096 440,170.5C 437.766,171.705 436.099,171.039 435,168.5C 432.945,162.058 430.612,155.725 428,149.5C 427.586,149.957 427.086,150.291 426.5,150.5C 425.167,156.167 425.167,161.833 426.5,167.5C 428.836,169.073 428.836,170.406 426.5,171.5C 424.167,170.167 421.833,170.167 419.5,171.5C 418.522,171.023 417.689,170.357 417,169.5C 418.296,164.666 418.629,159.666 418,154.5C 417.586,154.957 417.086,155.291 416.5,155.5C 414.878,154.067 413.545,152.401 412.5,150.5C 410.971,156.815 411.305,162.982 413.5,169C 413.37,170.059 412.87,170.892 412,171.5C 409.868,170.22 407.702,170.22 405.5,171.5C 403.902,169.027 402.402,169.027 401,171.5C 399,170.167 397,170.167 395,171.5C 392.797,169.331 391.964,166.665 392.5,163.5C 388.759,162.599 386.759,163.932 386.5,167.5C 387.5,167.5 388.5,167.5 389.5,167.5C 389.778,169.346 389.111,170.68 387.5,171.5C 384.071,171.093 380.905,170.093 378,168.5C 369.537,173.442 363.204,171.442 359,162.5C 357.667,152.821 361.834,147.488 371.5,146.5C 374.259,146.542 376.925,147.042 379.5,148C 380.435,150.381 380.768,152.881 380.5,155.5C 377.255,155.707 375.255,154.207 374.5,151C 366.115,150.409 363.282,154.242 366,162.5C 367.666,165.379 370.166,166.212 373.5,165C 374.966,164.365 376.3,163.531 377.5,162.5C 378.315,164.276 379.482,164.943 381,164.5C 383.604,158.182 386.104,151.849 388.5,145.5 Z M 389.5,157.5 C 390.773,158.077 390.773,158.743 389.5,159.5C 388.537,159.03 388.537,158.363 389.5,157.5 Z"/></g>
<g><path style="opacity:0.57" fill="#000000" d="M 454.5,145.5 C 455.913,146.991 457.413,147.658 459,147.5C 461.365,155.438 464.198,163.104 467.5,170.5C 460.792,173.135 457.792,170.801 458.5,163.5C 456.5,163.5 454.5,163.5 452.5,163.5C 452.5,164.833 452.5,166.167 452.5,167.5C 453.5,167.5 454.5,167.5 455.5,167.5C 455.778,169.346 455.111,170.68 453.5,171.5C 451.298,170.22 449.132,170.22 447,171.5C 445.764,170.601 444.93,169.434 444.5,168C 448.315,160.723 451.649,153.223 454.5,145.5 Z"/></g>
<g><path style="opacity:0.55" fill="#000000" d="M 334.5,146.5 C 337.85,146.335 341.183,146.502 344.5,147C 345.428,147.388 346.095,148.055 346.5,149C 344.482,154.656 343.982,160.489 345,166.5C 348.182,167.748 350.515,166.748 352,163.5C 353.067,157.808 352.234,152.475 349.5,147.5C 353.155,146.414 356.822,146.414 360.5,147.5C 360.716,149.681 359.883,151.347 358,152.5C 357.667,156.833 357.333,161.167 357,165.5C 350.892,173.456 344.559,173.456 338,165.5C 337.667,160.167 337.333,154.833 337,149.5C 335.583,148.922 334.75,147.922 334.5,146.5 Z"/></g>
<g><path style="opacity:1" fill="#f75e0d" d="M 548.5,148.5 C 548.5,149.167 548.5,149.833 548.5,150.5C 549.15,152.435 549.483,154.435 549.5,156.5C 546.302,157.036 543.635,156.369 541.5,154.5C 542.11,153.609 542.443,152.609 542.5,151.5C 542.5,148.167 542.5,144.833 542.5,141.5C 548.254,140.986 550.254,143.319 548.5,148.5 Z"/></g>
<g><path style="opacity:1" fill="#b48976" d="M 486.5,147.5 C 487.586,147.62 488.253,148.287 488.5,149.5C 487.533,151.762 486.866,154.095 486.5,156.5C 484.345,156.628 482.345,156.128 480.5,155C 485.783,156.392 486.449,155.392 482.5,152C 483.951,152.263 485.284,152.096 486.5,151.5C 486.709,150.914 487.043,150.414 487.5,150C 486.049,150.263 484.716,150.096 483.5,149.5C 484.602,148.824 485.602,148.158 486.5,147.5 Z"/></g>
<g><path style="opacity:1" fill="#fcfaf8" d="M 567.5,203.5 C 560.778,207.724 555.611,213.39 552,220.5C 551.929,224.901 550.429,228.734 547.5,232C 546.5,232.667 545.5,232.667 544.5,232C 541.292,226.173 536.458,223.673 530,224.5C 529.51,223.207 529.343,221.873 529.5,220.5C 530.5,220.5 531.5,220.5 532.5,220.5C 532.656,217.934 532.322,215.434 531.5,213C 535.6,210.146 537.934,206.146 538.5,201C 538.32,198.759 537.487,198.259 536,199.5C 535.612,198.572 534.945,197.905 534,197.5C 532.338,198.997 530.838,200.663 529.5,202.5C 528.167,200.5 526.5,198.833 524.5,197.5C 525.022,196.393 525.355,195.226 525.5,194C 524.931,189.467 524.264,184.967 523.5,180.5C 528.171,178.825 530.504,175.492 530.5,170.5C 535.218,166.83 536.551,162.163 534.5,156.5C 536.843,155.725 539.177,155.058 541.5,154.5C 543.635,156.369 546.302,157.036 549.5,156.5C 549.483,154.435 549.15,152.435 548.5,150.5C 549.738,149.588 551.072,149.421 552.5,150C 556.547,153.692 561.214,156.359 566.5,158C 567.231,160.595 568.898,162.261 571.5,163C 575.44,164.015 579.44,164.515 583.5,164.5C 583.281,163.325 583.614,162.325 584.5,161.5C 587.696,163.928 591.029,166.095 594.5,168C 593.833,168.333 593.167,168.667 592.5,169C 594.139,171.129 595.473,173.462 596.5,176C 594.404,183.859 590.738,190.859 585.5,197C 579.739,199.775 573.739,201.942 567.5,203.5 Z"/></g>
<g><path style="opacity:1" fill="#a25f40" d="M 483.5,160.5 C 484.645,161.793 484.311,162.959 482.5,164C 480.926,164.699 479.593,164.365 478.5,163C 480.653,162.901 482.319,162.067 483.5,160.5 Z"/></g>
<g><path style="opacity:0.365" fill="#211d28" d="M 112.5,110.5 C 95.3251,110.17 78.3251,110.503 61.5,111.5C 49.4536,125.368 34.6203,135.035 17,140.5C 14.6135,169.616 21.7802,195.95 38.5,219.5C 35.2869,219.19 32.2869,219.523 29.5,220.5C 32.1914,224.185 34.8581,227.852 37.5,231.5C 33.0895,228.421 29.7562,224.421 27.5,219.5C 30.4465,218.679 33.4465,218.179 36.5,218C 24.7762,202.51 17.9428,185.01 16,165.5C 14.7458,156.491 14.5791,147.491 15.5,138.5C 27.102,136.365 37.4354,131.532 46.5,124C 51.6397,119.772 56.3063,115.105 60.5,110C 78.0049,109.171 95.3382,109.338 112.5,110.5 Z"/></g>
<g><path style="opacity:1" fill="#f27444" d="M 483.5,175.5 C 480.453,173.887 477.953,174.554 476,177.5C 475.749,174.735 477.082,173.068 480,172.5C 481.95,172.707 483.116,173.707 483.5,175.5 Z"/></g>
<g><path style="opacity:1" fill="#f05e30" d="M 623.5,180.5 C 622.324,181.635 620.324,181.801 617.5,181C 621.304,179.506 620.971,178.672 616.5,178.5C 617.654,176.197 619.321,175.863 621.5,177.5C 626.802,175.531 626.802,176.365 621.5,180C 622.094,180.464 622.761,180.631 623.5,180.5 Z"/></g>
<g><path style="opacity:0.518" fill="#2c2826" d="M 61.5,111.5 C 78.3251,110.503 95.3251,110.17 112.5,110.5C 119.745,118.247 127.745,125.081 136.5,131C 143.524,134.774 150.69,137.941 158,140.5C 159.642,164.956 154.642,187.956 143,209.5C 140.955,212.423 138.788,215.257 136.5,218C 139.882,218.176 143.215,218.676 146.5,219.5C 145.479,221.188 144.145,222.521 142.5,223.5C 142.414,222.504 142.748,221.671 143.5,221C 138.326,219.539 133.993,220.706 130.5,224.5C 150.737,200.255 159.237,172.255 156,140.5C 138.627,135.473 124.127,125.973 112.5,112C 95.5033,111.5 78.5033,111.333 61.5,111.5 Z"/></g>
<g><path style="opacity:1" fill="#f35823" d="M 483.5,175.5 C 484.994,179.85 483.328,181.683 478.5,181C 481.772,180.563 483.439,178.73 483.5,175.5 Z"/></g>
<g><path style="opacity:1" fill="#faae8b" d="M 616.5,178.5 C 620.971,178.672 621.304,179.506 617.5,181C 620.324,181.801 622.324,181.635 623.5,180.5C 623.56,179.957 623.893,179.624 624.5,179.5C 625.386,180.325 625.719,181.325 625.5,182.5C 622.5,182.5 619.5,182.5 616.5,182.5C 616.5,181.167 616.5,179.833 616.5,178.5 Z"/></g>
<g><path style="opacity:0.544" fill="#000000" d="M 190.5,184.5 C 191.222,184.918 191.722,185.584 192,186.5C 192.333,186.167 192.667,185.833 193,185.5C 193.333,186.5 193.667,187.5 194,188.5C 195.582,185.659 197.749,184.659 200.5,185.5C 201.583,186.365 201.749,187.365 201,188.5C 199.833,189.667 198.667,190.833 197.5,192C 198.025,192.692 198.692,193.192 199.5,193.5C 202.707,186.465 207.707,184.799 214.5,188.5C 215.474,190.743 215.808,193.076 215.5,195.5C 212.64,194.982 210.64,193.316 209.5,190.5C 206.877,192.875 207.211,195.041 210.5,197C 212.333,198.167 214.167,199.333 216,200.5C 216.333,202.167 216.667,203.833 217,205.5C 219.333,199.5 221.667,193.5 224,187.5C 225.707,186.862 227.54,186.862 229.5,187.5C 231.556,194.168 233.722,200.835 236,207.5C 237.896,203.958 238.729,200.125 238.5,196C 238.572,192.664 237.572,189.83 235.5,187.5C 239.066,186.149 242.399,186.649 245.5,189C 248.123,192.412 250.623,195.912 253,199.5C 253.27,194.921 252.437,190.588 250.5,186.5C 253.711,186.012 256.544,186.679 259,188.5C 260.131,187.396 260.965,187.729 261.5,189.5C 260.855,190.646 260.022,191.646 259,192.5C 258.5,198.825 258.334,205.158 258.5,211.5C 257.022,211.762 255.689,211.429 254.5,210.5C 250.808,205.975 247.308,201.308 244,196.5C 243.333,199.833 243.333,203.167 244,206.5C 245.883,207.653 246.716,209.319 246.5,211.5C 240.824,211.666 235.157,211.499 229.5,211C 229.833,210.667 230.167,210.333 230.5,210C 229.692,209.692 229.025,209.192 228.5,208.5C 229.052,206.997 229.052,205.331 228.5,203.5C 225.712,203.077 223.712,204.077 222.5,206.5C 223.325,207.386 224.325,207.719 225.5,207.5C 225.5,208.833 225.5,210.167 225.5,211.5C 222.15,211.665 218.817,211.498 215.5,211C 216.888,210.111 216.722,209.611 215,209.5C 209.961,212.485 205.294,212.152 201,208.5C 200.186,206.098 200.353,203.765 201.5,201.5C 202.736,202.246 204.07,202.579 205.5,202.5C 204.737,206.409 206.07,207.742 209.5,206.5C 210.614,205.277 210.781,203.944 210,202.5C 207.333,200.5 204.667,198.5 202,196.5C 199.17,200.29 196.503,200.29 194,196.5C 190.737,200.549 187.737,200.216 185,195.5C 184.176,190.482 186.009,186.815 190.5,184.5 Z M 192.5,189.5 C 192.688,191.103 192.188,192.437 191,193.5C 190.652,191.86 191.152,190.527 192.5,189.5 Z M 225.5,197.5 C 226.773,198.077 226.773,198.743 225.5,199.5C 224.537,199.03 224.537,198.363 225.5,197.5 Z"/></g>
<g><path style="opacity:0.547" fill="#000000" d="M 376.5,208.5 C 376.5,209.5 376.5,210.5 376.5,211.5C 373.15,211.665 369.817,211.498 366.5,211C 366.833,210.667 367.167,210.333 367.5,210C 366.333,209.5 365.5,208.667 365,207.5C 358,213.31 351.666,212.643 346,205.5C 342.463,197.312 344.629,191.146 352.5,187C 356.701,186.078 360.701,186.578 364.5,188.5C 369.23,185.711 373.73,186.044 378,189.5C 381.87,185.941 386.037,185.608 390.5,188.5C 391.298,190.078 391.798,191.744 392,193.5C 396.997,186.324 403.497,184.658 411.5,188.5C 412.308,190.423 412.808,192.423 413,194.5C 417.642,186.188 424.142,184.354 432.5,189C 434.81,190.637 436.31,192.804 437,195.5C 438.167,194.333 439.333,193.167 440.5,192C 436.879,190.177 436.213,187.843 438.5,185C 440.567,184.464 442.401,184.964 444,186.5C 446.79,184.169 449.624,184.336 452.5,187C 453.943,192.621 451.943,196.788 446.5,199.5C 445.481,198.313 444.314,197.313 443,196.5C 440.553,199.708 438.887,199.708 438,196.5C 437.234,207.608 431.401,212.441 420.5,211C 418.04,209.542 415.873,207.709 414,205.5C 406.97,213.412 399.97,213.412 393,205.5C 388.488,212.167 382.988,213.167 376.5,208.5 Z M 365.5,190.5 C 365.56,189.957 365.893,189.624 366.5,189.5C 367.663,195.137 367.83,200.804 367,206.5C 366.612,204.285 365.612,202.952 364,202.5C 353.275,208.328 349.275,205.328 352,193.5C 356.181,189.192 359.681,189.525 362.5,194.5C 363.689,195.429 365.022,195.762 366.5,195.5C 366.784,193.585 366.451,191.919 365.5,190.5 Z M 384.5,190.5 C 385.931,191.446 387.264,192.612 388.5,194C 388.167,194.333 387.833,194.667 387.5,195C 388.793,195.49 390.127,195.657 391.5,195.5C 391.66,197.199 391.494,198.866 391,200.5C 387.844,198.343 385.011,195.843 382.5,193C 383.381,192.292 384.047,191.458 384.5,190.5 Z M 410.5,203.5 C 399.646,208.1 395.812,204.767 399,193.5C 400.351,191.99 402.018,190.99 404,190.5C 406.952,192.278 409.786,194.278 412.5,196.5C 411.42,199.126 411.754,201.626 413.5,204C 412.251,204.74 411.251,204.573 410.5,203.5 Z M 376.5,208.5 C 375.883,208.389 375.383,208.056 375,207.5C 374.171,202.136 374.337,196.802 375.5,191.5C 376.427,193.113 377.261,194.779 378,196.5C 381.339,198.673 384.172,201.34 386.5,204.5C 385.579,206.756 383.912,207.756 381.5,207.5C 381.5,205.833 381.5,204.167 381.5,202.5C 380.07,202.579 378.736,202.246 377.5,201.5C 376.526,203.743 376.192,206.076 376.5,208.5 Z M 421.5,191.5 C 427.788,190.453 431.121,193.12 431.5,199.5C 430.947,205.881 427.613,208.048 421.5,206C 417.607,201.027 417.607,196.194 421.5,191.5 Z M 445.5,193.5 C 445.517,191.972 446.184,191.472 447.5,192C 446.956,192.717 446.289,193.217 445.5,193.5 Z"/></g>
<g><path style="opacity:1" fill="#f36b3f" d="M 618.5,183.5 C 623.658,184.484 623.658,185.317 618.5,186C 617.667,186.833 616.833,187.667 616,188.5C 615.751,186.332 616.584,184.665 618.5,183.5 Z"/></g>
<g><path style="opacity:0.576" fill="#000000" d="M 293.5,207.5 C 293.5,208.833 293.5,210.167 293.5,211.5C 288.999,212.137 284.999,211.137 281.5,208.5C 282.242,207.713 283.075,207.047 284,206.5C 284.499,202.848 284.665,199.182 284.5,195.5C 281.833,194.167 279.167,192.833 276.5,191.5C 276.03,196.106 277.863,198.106 282,197.5C 282.49,198.793 282.657,200.127 282.5,201.5C 280.5,201.5 278.5,201.5 276.5,201.5C 276.533,205.256 277.533,208.589 279.5,211.5C 274.999,212.137 270.999,211.137 267.5,208.5C 267.808,207.692 268.308,207.025 269,206.5C 269.91,199.672 269.41,193.005 267.5,186.5C 276.506,186.334 285.506,186.5 294.5,187C 296.087,187.862 297.754,188.529 299.5,189C 301.393,193.578 300.393,197.412 296.5,200.5C 297.833,202.5 299.167,204.5 300.5,206.5C 304.267,199.966 307.767,193.3 311,186.5C 312.395,186.78 313.562,187.447 314.5,188.5C 316.836,194.51 319.169,200.51 321.5,206.5C 324.165,199.843 324.165,193.176 321.5,186.5C 324.893,186.062 327.893,186.895 330.5,189C 333.388,192.222 335.888,195.722 338,199.5C 338.667,197.167 338.667,194.833 338,192.5C 336.878,190.58 336.044,188.58 335.5,186.5C 339.215,186.423 342.881,186.756 346.5,187.5C 346.392,189.783 345.559,191.783 344,193.5C 343.501,199.491 343.334,205.491 343.5,211.5C 340.737,211.256 338.571,209.923 337,207.5C 327.922,192.887 326.089,194.221 331.5,211.5C 326.125,211.828 320.792,211.495 315.5,210.5C 314.833,209.833 314.167,209.167 313.5,208.5C 314.612,204.54 312.945,202.873 308.5,203.5C 308.578,206.831 309.245,209.498 310.5,211.5C 306.154,211.666 301.821,211.499 297.5,211C 296.295,209.624 294.962,208.458 293.5,207.5 Z M 291.5,191.5 C 293.256,192.552 293.923,194.219 293.5,196.5C 292.448,196.649 291.448,196.483 290.5,196C 291.38,194.644 291.714,193.144 291.5,191.5 Z M 293.5,207.5 C 291.775,207.157 291.275,206.157 292,204.5C 293.039,205.244 293.539,206.244 293.5,207.5 Z"/></g>
<g><path style="opacity:1" fill="#f17b4d" d="M 481.5,183.5 C 485.335,184.004 485.335,185.004 481.5,186.5C 482.5,187.167 483.5,187.833 484.5,188.5C 482.002,187.879 479.668,188.545 477.5,190.5C 476.406,189.132 476.74,187.965 478.5,187C 477.692,186.692 477.025,186.192 476.5,185.5C 478.291,184.83 479.958,184.163 481.5,183.5 Z"/></g>
<g><path style="opacity:1" fill="#a55528" d="M 542.5,151.5 C 542.443,152.609 542.11,153.609 541.5,154.5C 539.177,155.058 536.843,155.725 534.5,156.5C 536.551,162.163 535.218,166.83 530.5,170.5C 530.504,175.492 528.171,178.825 523.5,180.5C 524.264,184.967 524.931,189.467 525.5,194C 525.355,195.226 525.022,196.393 524.5,197.5C 526.5,198.833 528.167,200.5 529.5,202.5C 530.838,200.663 532.338,198.997 534,197.5C 534.945,197.905 535.612,198.572 536,199.5C 537.487,198.259 538.32,198.759 538.5,201C 537.934,206.146 535.6,210.146 531.5,213C 532.322,215.434 532.656,217.934 532.5,220.5C 531.5,220.5 530.5,220.5 529.5,220.5C 529.343,221.873 529.51,223.207 530,224.5C 536.458,223.673 541.292,226.173 544.5,232C 545.5,232.667 546.5,232.667 547.5,232C 550.429,228.734 551.929,224.901 552,220.5C 555.611,213.39 560.778,207.724 567.5,203.5C 573.739,201.942 579.739,199.775 585.5,197C 590.738,190.859 594.404,183.859 596.5,176C 595.473,173.462 594.139,171.129 592.5,169C 593.167,168.667 593.833,168.333 594.5,168C 591.029,166.095 587.696,163.928 584.5,161.5C 583.614,162.325 583.281,163.325 583.5,164.5C 579.44,164.515 575.44,164.015 571.5,163C 568.898,162.261 567.231,160.595 566.5,158C 561.214,156.359 556.547,153.692 552.5,150C 551.072,149.421 549.738,149.588 548.5,150.5C 548.5,149.833 548.5,149.167 548.5,148.5C 552.008,147.729 555.008,148.896 557.5,152C 561.556,153.464 565.389,155.297 569,157.5C 569.483,158.448 569.649,159.448 569.5,160.5C 573.661,162.063 577.995,162.729 582.5,162.5C 582.5,161.5 582.5,160.5 582.5,159.5C 586.604,161.104 590.604,162.937 594.5,165C 595.685,166.353 597.019,167.52 598.5,168.5C 594.864,169.936 594.697,171.603 598,173.5C 596.895,184.868 591.729,194.035 582.5,201C 576.333,202.5 570.333,204.5 564.5,207C 561.934,209.996 559.268,212.829 556.5,215.5C 554.283,219.545 552.95,223.878 552.5,228.5C 550.812,230.029 549.479,231.863 548.5,234C 547.167,234.667 545.833,234.667 544.5,234C 542.595,232.185 540.928,230.185 539.5,228C 537,227.625 534.667,226.792 532.5,225.5C 530.929,226.309 529.262,226.643 527.5,226.5C 527.5,223.833 527.5,221.167 527.5,218.5C 528.978,218.762 530.311,218.429 531.5,217.5C 530.735,215.705 530.068,213.872 529.5,212C 532.376,209.623 534.709,206.79 536.5,203.5C 535.264,202.643 533.931,201.977 532.5,201.5C 531.614,202.325 531.281,203.325 531.5,204.5C 530.448,204.649 529.448,204.483 528.5,204C 525.77,201.118 522.77,198.451 519.5,196C 520.793,195.51 522.127,195.343 523.5,195.5C 522.73,189.81 522.23,184.143 522,178.5C 523.667,177.833 525.333,177.167 527,176.5C 527.333,174.5 527.667,172.5 528,170.5C 533.268,166.744 534.934,161.744 533,155.5C 536.154,154.115 539.321,152.782 542.5,151.5 Z"/></g>
<g><path style="opacity:1" fill="#f85d0d" d="M 554.5,175.5 C 556.228,180.33 558.061,184.997 560,189.5C 555.346,187.979 550.513,186.979 545.5,186.5C 546.913,182.981 546.579,179.647 544.5,176.5C 547.728,175.586 551.061,175.253 554.5,175.5 Z"/></g>
<g><path style="opacity:1" fill="#f2bc9c" d="M 543.5,163.5 C 544.482,166.962 544.815,170.629 544.5,174.5C 547.689,174.142 550.689,173.475 553.5,172.5C 554.404,173.209 554.737,174.209 554.5,175.5C 551.061,175.253 547.728,175.586 544.5,176.5C 543.564,172.265 543.231,167.931 543.5,163.5 Z"/></g>
<g><path style="opacity:1" fill="#f85b07" d="M 553.5,172.5 C 550.689,173.475 547.689,174.142 544.5,174.5C 544.815,170.629 544.482,166.962 543.5,163.5C 543.617,161.516 542.95,159.85 541.5,158.5C 544.106,157.348 546.773,157.182 549.5,158C 550.521,162.898 551.854,167.732 553.5,172.5 Z"/></g>
<g><path style="opacity:1" fill="#f85c07" d="M 567.5,203.5 C 562.703,203.879 558.036,203.379 553.5,202C 552.673,196.849 550.339,192.515 546.5,189C 551.943,187.97 556.943,188.97 561.5,192C 563.128,196.092 565.128,199.925 567.5,203.5 Z"/></g>
<g><path style="opacity:1" fill="#ed4f1e" d="M 623.5,188.5 C 624.645,189.793 624.311,190.959 622.5,192C 621.167,192.667 619.833,192.667 618.5,192C 620.881,191.777 622.547,190.61 623.5,188.5 Z"/></g>
<g><path style="opacity:1" fill="#f05721" d="M 482.5,191.5 C 483.675,191.281 484.675,191.614 485.5,192.5C 482.956,193.426 480.456,194.426 478,195.5C 477.833,195.167 477.667,194.833 477.5,194.5C 479.36,193.675 481.026,192.675 482.5,191.5 Z"/></g>
<g><path style="opacity:1" fill="#ed5d2d" d="M 615.5,193.5 C 617.842,193.504 619.842,194.337 621.5,196C 619.3,195.416 617.133,195.582 615,196.5C 614.53,195.423 614.697,194.423 615.5,193.5 Z"/></g>
<g><path style="opacity:1" fill="#f25f2b" d="M 485.5,196.5 C 486.645,197.793 486.311,198.959 484.5,200C 482.711,200.52 481.044,200.187 479.5,199C 481.974,198.963 483.974,198.13 485.5,196.5 Z"/></g>
<g><path style="opacity:1" fill="#f06733" d="M 486.5,200.5 C 488.337,200.639 488.67,201.306 487.5,202.5C 478.848,204.856 478.515,204.189 486.5,200.5 Z"/></g>
<g><path style="opacity:1" fill="#ec6735" d="M 613.5,198.5 C 616.04,199.747 618.706,200.747 621.5,201.5C 617.972,202.734 615.305,201.734 613.5,198.5 Z"/></g>
<g><path style="opacity:1" fill="#ef561e" d="M 489.5,206.5 C 490.289,206.783 490.956,207.283 491.5,208C 490.126,210.583 488.626,213.083 487,215.5C 487.776,212.577 488.609,209.577 489.5,206.5 Z"/></g>
<g><path style="opacity:1" fill="#e58b6a" d="M 608.5,209.5 C 611.401,210.792 613.734,212.792 615.5,215.5C 613.038,220.464 609.872,220.798 606,216.5C 605.333,215.833 605.333,215.167 606,214.5C 607.995,216.747 610.495,217.747 613.5,217.5C 613.649,216.448 613.483,215.448 613,214.5C 610.8,213.349 609.3,211.682 608.5,209.5 Z"/></g>
<g><path style="opacity:1" fill="#f9f9f9" d="M 29.5,220.5 C 35.4846,219.169 40.1512,221.002 43.5,226C 41.8978,227.935 40.7311,230.101 40,232.5C 39.3292,231.748 38.4959,231.414 37.5,231.5C 34.8581,227.852 32.1914,224.185 29.5,220.5 Z"/></g>
<g><path style="opacity:1" fill="#f7f7f7" d="M 142.5,223.5 C 139.061,227.36 135.395,231.027 131.5,234.5C 130.733,233.828 130.066,232.995 129.5,232C 132.167,230.333 132.167,228.667 129.5,227C 130.252,226.329 130.586,225.496 130.5,224.5C 133.993,220.706 138.326,219.539 143.5,221C 142.748,221.671 142.414,222.504 142.5,223.5 Z"/></g>
<g><path style="opacity:1" fill="#f16433" d="M 493.5,218.5 C 494.239,218.369 494.906,218.536 495.5,219C 492.833,221.333 492.833,223.667 495.5,226C 493.174,226.185 491.84,225.018 491.5,222.5C 491.752,220.927 492.418,219.594 493.5,218.5 Z"/></g>
<g><path style="opacity:1" fill="#565352" d="M 29.5,220.5 C 32.2869,219.523 35.2869,219.19 38.5,219.5C 43.1667,223.5 47.5,227.833 51.5,232.5C 48.7245,231.688 46.5579,230.021 45,227.5C 44.2155,229.286 43.0488,230.786 41.5,232C 44.641,232.631 45.641,234.298 44.5,237C 45.3805,237.708 46.0472,238.542 46.5,239.5C 42.8998,237.57 39.8998,234.903 37.5,231.5C 38.4959,231.414 39.3292,231.748 40,232.5C 40.7311,230.101 41.8978,227.935 43.5,226C 40.1512,221.002 35.4846,219.169 29.5,220.5 Z"/></g>
<g><path style="opacity:1" fill="#f1835e" d="M 600.5,221.5 C 601.911,222.908 603.577,223.908 605.5,224.5C 607.425,224.41 608.592,223.41 609,221.5C 609.822,224.517 608.655,226.183 605.5,226.5C 602.294,226.447 600.627,224.78 600.5,221.5 Z"/></g>
<g><path style="opacity:1" fill="#e7e307" d="M 61.5,111.5 C 78.5033,111.333 95.5033,111.5 112.5,112C 124.127,125.973 138.627,135.473 156,140.5C 159.237,172.255 150.737,200.255 130.5,224.5C 119.64,235.105 106.973,242.938 92.5,248C 89.5682,248.953 86.5682,249.453 83.5,249.5C 81.1098,247.98 78.4432,246.98 75.5,246.5C 69.9994,243.249 64.3327,240.249 58.5,237.5C 56.4504,235.453 54.117,233.786 51.5,232.5C 47.5,227.833 43.1667,223.5 38.5,219.5C 21.7802,195.95 14.6135,169.616 17,140.5C 34.6203,135.035 49.4536,125.368 61.5,111.5 Z"/></g>
<g><path style="opacity:1" fill="#403e2f" d="M 130.5,214.5 C 126.833,220.167 122.167,224.833 116.5,228.5C 120.833,223.5 125.5,218.833 130.5,214.5 Z"/></g>
<g><path style="opacity:1" fill="#3e3c30" d="M 51.5,212.5 C 50.0603,214.388 48.3936,216.055 46.5,217.5C 49.189,220.52 51.8556,223.52 54.5,226.5C 49.8547,223.855 46.188,220.188 43.5,215.5C 46.4056,215.043 49.0722,214.043 51.5,212.5 Z"/></g>
<g><path style="opacity:1" fill="#3e3a37" d="M 142.5,193.5 C 142.293,196.241 141.293,198.574 139.5,200.5C 139.707,197.759 140.707,195.426 142.5,193.5 Z"/></g>
<g><path style="opacity:1" fill="#494a45" d="M 94.5,167.5 C 95.6316,168.354 96.965,168.354 98.5,167.5C 97.6851,168.837 96.5185,169.837 95,170.5C 94.2571,172.441 94.4238,174.274 95.5,176C 101.423,177.961 105.423,176.128 107.5,170.5C 107.351,171.552 107.517,172.552 108,173.5C 108.671,172.748 109.504,172.414 110.5,172.5C 108.906,173.983 107.24,175.483 105.5,177C 108.381,178.358 111.214,179.858 114,181.5C 114.667,183.167 114.667,184.833 114,186.5C 111.508,188.497 108.675,189.497 105.5,189.5C 107.051,192.619 108.051,195.952 108.5,199.5C 108.126,201.95 106.626,202.95 104,202.5C 100.449,201.639 96.9486,200.639 93.5,199.5C 93.5497,204.045 91.883,207.711 88.5,210.5C 86.8561,210.714 85.3561,210.38 84,209.5C 82.3957,206.541 81.2291,203.541 80.5,200.5C 80.44,199.957 80.1067,199.624 79.5,199.5C 75.4884,201.883 71.155,202.883 66.5,202.5C 66.3225,201.305 65.9891,200.138 65.5,199C 67.0076,195.829 68.341,192.662 69.5,189.5C 65.5078,189.176 62.5078,187.342 60.5,184C 61.1007,182.395 62.1007,181.062 63.5,180C 65.8474,179.288 67.8474,178.121 69.5,176.5C 67.0226,173.565 65.8559,170.232 66,166.5C 70.7353,165.058 75.2353,165.724 79.5,168.5C 80.9438,166.392 81.6104,164.059 81.5,161.5C 82.9335,160.167 84.2668,158.667 85.5,157C 86.5,156.333 87.5,156.333 88.5,157C 91.4299,160.033 93.4299,163.533 94.5,167.5 Z"/></g>
<g><path style="opacity:1" fill="#c6261b" d="M 87.5,195.5 C 92.8391,196.665 94.0057,199.665 91,204.5C 90.3128,206.555 89.1461,208.221 87.5,209.5C 81.33,204.505 81.33,199.838 87.5,195.5 Z"/></g>
<g><path style="opacity:1" fill="#d1341d" d="M 95.5,194.5 C 99.2793,195.558 102.946,196.891 106.5,198.5C 107.74,200.314 107.073,201.314 104.5,201.5C 101.037,200.846 97.8701,199.513 95,197.5C 94.2599,196.251 94.4265,195.251 95.5,194.5 Z"/></g>
<g><path style="opacity:1" fill="#aaaaab" d="M 70.5,199.5 C 72.8525,198.66 74.8525,197.326 76.5,195.5C 79.0563,194.622 81.3896,193.289 83.5,191.5C 84.3081,191.808 84.9747,192.308 85.5,193C 81.2097,196.73 76.3763,199.563 71,201.5C 70.5357,200.906 70.369,200.239 70.5,199.5 Z"/></g>
<g><path style="opacity:1" fill="#f8f1f0" d="M 106.5,198.5 C 102.946,196.891 99.2793,195.558 95.5,194.5C 95.5,193.5 95.5,192.5 95.5,191.5C 102.011,189.722 105.678,192.055 106.5,198.5 Z"/></g>
<g><path style="opacity:1" fill="#136d27" d="M 76.5,195.5 C 74.8525,197.326 72.8525,198.66 70.5,199.5C 68.8763,201.137 67.8763,200.803 67.5,198.5C 68.1906,195.647 69.5239,193.147 71.5,191C 74.2453,190.782 76.912,191.282 79.5,192.5C 78.2299,193.288 77.2299,194.288 76.5,195.5 Z"/></g>
<g><path style="opacity:1" fill="#e3e3e3" d="M 91.5,185.5 C 92.3764,185.369 93.0431,185.702 93.5,186.5C 92.1255,189.729 89.7921,190.896 86.5,190C 88.2395,188.483 89.9062,186.983 91.5,185.5 Z"/></g>
<g><path style="opacity:1" fill="#534f43" d="M 147.5,178.5 C 146.813,183.895 145.146,188.895 142.5,193.5C 143.595,188.216 145.261,183.216 147.5,178.5 Z"/></g>
<g><path style="opacity:1" fill="#eeedee" d="M 96.5,185.5 C 103.35,188.68 103.017,190.013 95.5,189.5C 95.4326,188.041 95.7659,186.708 96.5,185.5 Z"/></g>
<g><path style="opacity:1" fill="#067024" d="M 75.5,185.5 C 78.179,185.525 79.5123,186.858 79.5,189.5C 77.396,189.799 75.396,189.466 73.5,188.5C 74.1925,187.482 74.8592,186.482 75.5,185.5 Z"/></g>
<g><path style="opacity:1" fill="#037826" d="M 73.5,180.5 C 73.5106,182.017 74.1772,183.184 75.5,184C 71.0055,189.735 66.3388,189.735 61.5,184C 64.6595,179.756 68.6595,178.59 73.5,180.5 Z"/></g>
<g><path style="opacity:1" fill="#f5f5f5" d="M 102.5,179.5 C 106.993,179.16 110.659,180.66 113.5,184C 108.258,189.377 103.591,189.21 99.5,183.5C 100.524,182.148 101.524,180.815 102.5,179.5 Z"/></g>
<g><path style="opacity:1" fill="#087025" d="M 73.5,180.5 C 74.6067,178.031 76.6067,177.031 79.5,177.5C 79.0886,182.293 77.0886,183.293 73.5,180.5 Z"/></g>
<g><path style="opacity:1" fill="#077728" d="M 91.5,185.5 C 89.9743,184.895 88.9743,183.729 88.5,182C 86.3927,181.146 85.0593,181.812 84.5,184C 88.3172,185.947 88.3172,187.781 84.5,189.5C 79.5378,186.115 79.2045,182.281 83.5,178C 88.125,176.448 91.4583,177.781 93.5,182C 93.0217,183.303 92.355,184.469 91.5,185.5 Z"/></g>
<g><path style="opacity:1" fill="#375b35" d="M 113.5,170.5 C 113.027,171.906 112.027,172.573 110.5,172.5C 109.504,172.414 108.671,172.748 108,173.5C 107.517,172.552 107.351,171.552 107.5,170.5C 107.67,169.178 107.337,168.011 106.5,167C 103.808,166.57 101.141,166.737 98.5,167.5C 101.137,165.573 104.137,165.073 107.5,166C 108.743,167.154 109.743,168.488 110.5,170C 111.448,170.483 112.448,170.649 113.5,170.5 Z"/></g>
<g><path style="opacity:1" fill="#067727" d="M 107.5,170.5 C 105.423,176.128 101.423,177.961 95.5,176C 94.4238,174.274 94.2571,172.441 95,170.5C 96.5185,169.837 97.6851,168.837 98.5,167.5C 101.141,166.737 103.808,166.57 106.5,167C 107.337,168.011 107.67,169.178 107.5,170.5 Z"/></g>
<g><path style="opacity:1" fill="#057727" d="M 67.5,166.5 C 71.4361,166.478 75.1027,167.478 78.5,169.5C 79.4742,171.743 79.8076,174.076 79.5,176.5C 76.7482,176.578 74.0816,176.745 71.5,177C 68.6269,174.087 67.2935,170.587 67.5,166.5 Z"/></g>
<g><path style="opacity:1" fill="#037726" d="M 84.5,163.5 C 86.1815,165.008 88.1815,166.008 90.5,166.5C 91.984,167.473 92.484,168.807 92,170.5C 90.414,171.376 88.914,172.376 87.5,173.5C 82.9228,172.079 81.4228,169.079 83,164.5C 83.3826,163.944 83.8826,163.611 84.5,163.5 Z"/></g>
<g><path style="opacity:1" fill="#333333" d="M 145.5,148.5 C 143.704,150.9 141.37,152.567 138.5,153.5C 140.296,151.1 142.63,149.433 145.5,148.5 Z"/></g>
<g><path style="opacity:1" fill="#2a4620" d="M 23.5,144.5 C 23.4178,152.876 23.7511,161.543 24.5,170.5C 22.8911,163.898 21.8911,157.064 21.5,150C 21.5465,147.705 22.2132,145.871 23.5,144.5 Z"/></g>
<g><path style="opacity:1" fill="#37451a" d="M 140.5,141.5 C 144.099,142.699 147.765,143.699 151.5,144.5C 151.821,150.026 151.488,155.36 150.5,160.5C 150.827,155.786 150.493,151.12 149.5,146.5C 148.378,147.63 147.044,148.297 145.5,148.5C 145.953,147.542 146.619,146.708 147.5,146C 144.998,144.646 142.665,143.146 140.5,141.5 Z"/></g>
<g><path style="opacity:1" fill="#f6f6f5" d="M 150.5,160.5 C 150.359,166.678 149.359,172.678 147.5,178.5C 145.261,183.216 143.595,188.216 142.5,193.5C 140.707,195.426 139.707,197.759 139.5,200.5C 137.494,205.855 134.494,210.521 130.5,214.5C 125.5,218.833 120.833,223.5 116.5,228.5C 112.975,229.759 109.975,231.759 107.5,234.5C 107.158,235.338 106.492,235.672 105.5,235.5C 101.849,236.659 98.5154,238.326 95.5,240.5C 94.791,241.404 93.791,241.737 92.5,241.5C 90.5122,241.827 88.5122,242.16 86.5,242.5C 82.1488,241.131 77.8155,239.797 73.5,238.5C 69.3447,237.258 65.678,235.258 62.5,232.5C 60.1997,230.016 57.5331,228.016 54.5,226.5C 51.8556,223.52 49.189,220.52 46.5,217.5C 48.3936,216.055 50.0603,214.388 51.5,212.5C 57.0244,209.908 62.0244,206.575 66.5,202.5C 71.155,202.883 75.4884,201.883 79.5,199.5C 80.1067,199.624 80.44,199.957 80.5,200.5C 75.5959,203.23 71.0959,206.564 67,210.5C 66.1993,213.367 66.3659,216.034 67.5,218.5C 72.8471,222.844 78.8471,226.177 85.5,228.5C 87.1195,230.238 89.1195,230.738 91.5,230C 93.7512,227.242 96.4179,225.075 99.5,223.5C 102.135,224.729 104.801,224.729 107.5,223.5C 105.971,222.237 104.305,221.237 102.5,220.5C 102.5,219.833 102.833,219.5 103.5,219.5C 106.408,220.569 109.408,220.736 112.5,220C 110.512,219.062 108.512,218.228 106.5,217.5C 106.5,216.833 106.833,216.5 107.5,216.5C 111.091,218.72 114.757,218.887 118.5,217C 117.833,216.667 117.167,216.333 116.5,216C 119.807,215.347 122.473,213.681 124.5,211C 123.833,210.667 123.167,210.333 122.5,210C 123.667,208.833 124.833,207.667 126,206.5C 126.692,205.563 126.525,204.897 125.5,204.5C 125.5,204.167 125.5,203.833 125.5,203.5C 126.364,202.312 127.364,201.145 128.5,200C 126.833,200.333 125.167,200.667 123.5,201C 125.973,199.439 127.973,197.439 129.5,195C 128.692,194.692 128.025,194.192 127.5,193.5C 128.52,191.568 128.687,189.568 128,187.5C 127.148,188.571 126.315,189.571 125.5,190.5C 125.013,191.473 124.513,192.473 124,193.5C 123.623,192.058 122.79,191.058 121.5,190.5C 120.314,193.109 119.314,196.442 118.5,200.5C 117.99,203.943 117.156,207.276 116,210.5C 116.76,205.64 115.594,205.306 112.5,209.5C 110.952,209.179 110.285,208.179 110.5,206.5C 111.625,204.871 112.959,203.371 114.5,202C 112.512,201.062 110.512,200.228 108.5,199.5C 108.051,195.952 107.051,192.619 105.5,189.5C 108.675,189.497 111.508,188.497 114,186.5C 114.667,184.833 114.667,183.167 114,181.5C 111.214,179.858 108.381,178.358 105.5,177C 107.24,175.483 108.906,173.983 110.5,172.5C 112.027,172.573 113.027,171.906 113.5,170.5C 122.112,165.217 130.446,159.55 138.5,153.5C 141.37,152.567 143.704,150.9 145.5,148.5C 147.044,148.297 148.378,147.63 149.5,146.5C 150.493,151.12 150.827,155.786 150.5,160.5 Z"/></g>
<g><path style="opacity:1" fill="#d74e2d" d="M 109.5,214.5 C 108.5,214.833 107.833,215.5 107.5,216.5C 106.833,216.5 106.5,216.833 106.5,217.5C 104.973,217.427 103.973,218.094 103.5,219.5C 102.833,219.5 102.5,219.833 102.5,220.5C 101.167,221.167 100.167,222.167 99.5,223.5C 96.4179,225.075 93.7512,227.242 91.5,230C 89.1195,230.738 87.1195,230.238 85.5,228.5C 86.5,228.5 87.5,228.5 88.5,228.5C 95.1019,223.905 101.435,218.905 107.5,213.5C 108.925,211.969 109.591,212.302 109.5,214.5 Z"/></g>
<g><path style="opacity:1" fill="#6aa371" d="M 102.5,220.5 C 104.305,221.237 105.971,222.237 107.5,223.5C 104.801,224.729 102.135,224.729 99.5,223.5C 100.167,222.167 101.167,221.167 102.5,220.5 Z"/></g>
<g><path style="opacity:1" fill="#e7b088" d="M 110.5,206.5 C 110.285,208.179 110.952,209.179 112.5,209.5C 113.047,211.712 112.047,213.379 109.5,214.5C 109.591,212.302 108.925,211.969 107.5,213.5C 106.223,211.086 104.557,210.919 102.5,213C 98.2442,216.935 93.7442,220.435 89,223.5C 82.2834,221.318 75.7834,218.651 69.5,215.5C 69.5,213.833 69.5,212.167 69.5,210.5C 73.112,212.367 76.7787,214.034 80.5,215.5C 82.7097,216.351 84.7097,217.684 86.5,219.5C 86.8333,218.833 87.1667,218.167 87.5,217.5C 91.3067,217.969 94.9733,217.135 98.5,215C 102.12,211.533 106.12,208.7 110.5,206.5 Z"/></g>
<g><path style="opacity:1" fill="#81291e" d="M 69.5,210.5 C 69.5,212.167 69.5,213.833 69.5,215.5C 69.33,216.822 69.6634,217.989 70.5,219C 76.6144,222.083 82.6144,225.25 88.5,228.5C 87.5,228.5 86.5,228.5 85.5,228.5C 78.8471,226.177 72.8471,222.844 67.5,218.5C 67.3367,216.143 67.5034,213.81 68,211.5C 68.3826,210.944 68.8826,210.611 69.5,210.5 Z"/></g>
<g><path style="opacity:1" fill="#f4d6be" d="M 107.5,213.5 C 101.435,218.905 95.1019,223.905 88.5,228.5C 82.6144,225.25 76.6144,222.083 70.5,219C 69.6634,217.989 69.33,216.822 69.5,215.5C 75.7834,218.651 82.2834,221.318 89,223.5C 93.7442,220.435 98.2442,216.935 102.5,213C 104.557,210.919 106.223,211.086 107.5,213.5 Z"/></g>
<g><path style="opacity:1" fill="#297b35" d="M 106.5,217.5 C 108.512,218.228 110.512,219.062 112.5,220C 109.408,220.736 106.408,220.569 103.5,219.5C 103.973,218.094 104.973,217.427 106.5,217.5 Z"/></g>
<g><path style="opacity:1" fill="#3d9753" d="M 118.5,200.5 C 119.317,202.969 119.817,205.635 120,208.5C 121.5,206.531 123.333,205.198 125.5,204.5C 126.525,204.897 126.692,205.563 126,206.5C 124.833,207.667 123.667,208.833 122.5,210C 123.167,210.333 123.833,210.667 124.5,211C 122.473,213.681 119.807,215.347 116.5,216C 117.167,216.333 117.833,216.667 118.5,217C 114.757,218.887 111.091,218.72 107.5,216.5C 107.833,215.5 108.5,214.833 109.5,214.5C 112.047,213.379 113.047,211.712 112.5,209.5C 115.594,205.306 116.76,205.64 116,210.5C 117.156,207.276 117.99,203.943 118.5,200.5 Z"/></g>
<g><path style="opacity:1" fill="#c22d1f" d="M 80.5,200.5 C 81.2291,203.541 82.3957,206.541 84,209.5C 85.3561,210.38 86.8561,210.714 88.5,210.5C 86.8113,211.304 85.1446,212.304 83.5,213.5C 79.8745,212.111 76.7079,210.111 74,207.5C 73.3333,208.5 73.3333,209.5 74,210.5C 76.9009,211.237 79.0675,212.903 80.5,215.5C 76.7787,214.034 73.112,212.367 69.5,210.5C 68.8826,210.611 68.3826,210.944 68,211.5C 67.5034,213.81 67.3367,216.143 67.5,218.5C 66.3659,216.034 66.1993,213.367 67,210.5C 71.0959,206.564 75.5959,203.23 80.5,200.5 Z"/></g>
<g><path style="opacity:1" fill="#93b79b" d="M 121.5,190.5 C 121.278,193.39 121.945,196.057 123.5,198.5C 123.333,198.833 123.167,199.167 123,199.5C 122.085,198.672 121.419,197.672 121,196.5C 120.105,199.466 120.605,202.133 122.5,204.5C 123.417,203.873 124.417,203.539 125.5,203.5C 125.5,203.833 125.5,204.167 125.5,204.5C 123.333,205.198 121.5,206.531 120,208.5C 119.817,205.635 119.317,202.969 118.5,200.5C 119.314,196.442 120.314,193.109 121.5,190.5 Z"/></g>
<g><path style="opacity:1" fill="#ec3a22" d="M 108.5,199.5 C 110.512,200.228 112.512,201.062 114.5,202C 112.959,203.371 111.625,204.871 110.5,206.5C 106.12,208.7 102.12,211.533 98.5,215C 94.9733,217.135 91.3067,217.969 87.5,217.5C 87.1667,218.167 86.8333,218.833 86.5,219.5C 84.7097,217.684 82.7097,216.351 80.5,215.5C 79.0675,212.903 76.9009,211.237 74,210.5C 73.3333,209.5 73.3333,208.5 74,207.5C 76.7079,210.111 79.8745,212.111 83.5,213.5C 85.1446,212.304 86.8113,211.304 88.5,210.5C 91.883,207.711 93.5497,204.045 93.5,199.5C 96.9486,200.639 100.449,201.639 104,202.5C 106.626,202.95 108.126,201.95 108.5,199.5 Z"/></g>
<g><path style="opacity:1" fill="#348d4c" d="M 125.5,203.5 C 124.417,203.539 123.417,203.873 122.5,204.5C 120.605,202.133 120.105,199.466 121,196.5C 121.419,197.672 122.085,198.672 123,199.5C 123.167,199.167 123.333,198.833 123.5,198.5C 121.945,196.057 121.278,193.39 121.5,190.5C 122.79,191.058 123.623,192.058 124,193.5C 124.513,192.473 125.013,191.473 125.5,190.5C 126.315,189.571 127.148,188.571 128,187.5C 128.687,189.568 128.52,191.568 127.5,193.5C 128.025,194.192 128.692,194.692 129.5,195C 127.973,197.439 125.973,199.439 123.5,201C 125.167,200.667 126.833,200.333 128.5,200C 127.364,201.145 126.364,202.312 125.5,203.5 Z"/></g>
<g><path style="opacity:1" fill="#2c9756" d="M 125.5,190.5 C 123.414,189.852 122.414,188.352 122.5,186C 122.509,184.596 123.009,183.43 124,182.5C 125.375,184.937 125.875,187.603 125.5,190.5 Z"/></g>
<g><path style="opacity:1" fill="#087829" d="M 109.5,117.5 C 118.969,126.721 129.302,134.721 140.5,141.5C 142.665,143.146 144.998,144.646 147.5,146C 146.619,146.708 145.953,147.542 145.5,148.5C 142.63,149.433 140.296,151.1 138.5,153.5C 130.446,159.55 122.112,165.217 113.5,170.5C 112.448,170.649 111.448,170.483 110.5,170C 109.743,168.488 108.743,167.154 107.5,166C 104.137,165.073 101.137,165.573 98.5,167.5C 96.965,168.354 95.6316,168.354 94.5,167.5C 95.5832,161.855 95.0832,156.188 93,150.5C 92.3333,146.833 92.3333,143.167 93,139.5C 96.3936,138.544 99.8936,138.211 103.5,138.5C 103.54,135.119 103.207,131.786 102.5,128.5C 93.4938,128.334 84.4938,128.5 75.5,129C 72.924,131.651 71.5907,134.818 71.5,138.5C 75.5,138.5 79.5,138.5 83.5,138.5C 83.1072,145.75 82.1072,152.916 80.5,160C 80.5699,160.765 80.9033,161.265 81.5,161.5C 81.6104,164.059 80.9438,166.392 79.5,168.5C 75.2353,165.724 70.7353,165.058 66,166.5C 65.8559,170.232 67.0226,173.565 69.5,176.5C 67.8474,178.121 65.8474,179.288 63.5,180C 62.1007,181.062 61.1007,182.395 60.5,184C 62.5078,187.342 65.5078,189.176 69.5,189.5C 68.341,192.662 67.0076,195.829 65.5,199C 65.9891,200.138 66.3225,201.305 66.5,202.5C 62.0244,206.575 57.0244,209.908 51.5,212.5C 49.0722,214.043 46.4056,215.043 43.5,215.5C 32.5356,202.558 26.2023,187.558 24.5,170.5C 23.7511,161.543 23.4178,152.876 23.5,144.5C 33.867,140.482 43.5337,135.149 52.5,128.5C 56.9046,125.604 60.9046,122.104 64.5,118C 79.4963,117.5 94.4963,117.333 109.5,117.5 Z"/></g>
<g><path style="opacity:1" fill="#63320f" d="M 90.5,166.5 C 88.1815,166.008 86.1815,165.008 84.5,163.5C 85.4654,157.243 87.632,156.91 91,162.5C 91.765,164.066 91.5983,165.399 90.5,166.5 Z"/></g>
<g><path style="opacity:1" fill="#6c3613" d="M 94.5,167.5 C 93.4299,163.533 91.4299,160.033 88.5,157C 87.5,156.333 86.5,156.333 85.5,157C 84.2668,158.667 82.9335,160.167 81.5,161.5C 80.9033,161.265 80.5699,160.765 80.5,160C 82.1072,152.916 83.1072,145.75 83.5,138.5C 79.5,138.5 75.5,138.5 71.5,138.5C 71.5907,134.818 72.924,131.651 75.5,129C 84.4938,128.5 93.4938,128.334 102.5,128.5C 103.207,131.786 103.54,135.119 103.5,138.5C 99.8936,138.211 96.3936,138.544 93,139.5C 92.3333,143.167 92.3333,146.833 93,150.5C 95.0832,156.188 95.5832,161.855 94.5,167.5 Z"/></g>
<g><path style="opacity:1" fill="#3b4410" d="M 109.5,117.5 C 94.4963,117.333 79.4963,117.5 64.5,118C 60.9046,122.104 56.9046,125.604 52.5,128.5C 55.9629,124.536 59.6295,120.702 63.5,117C 79.0055,116.172 94.3389,116.339 109.5,117.5 Z"/></g>
<g><path style="opacity:1" fill="#4e4b41" d="M 54.5,226.5 C 57.5331,228.016 60.1997,230.016 62.5,232.5C 59.1092,231.471 56.4426,229.471 54.5,226.5 Z"/></g>
<g><path style="opacity:1" fill="#ee5e2b" d="M 503.5,225.5 C 504.27,228.383 503.437,231.05 501,233.5C 501.107,230.676 501.94,228.009 503.5,225.5 Z"/></g>
<g><path style="opacity:1" fill="#ee5021" d="M 595.5,226.5 C 598.747,227.894 600.581,230.227 601,233.5C 598.546,231.559 596.713,229.225 595.5,226.5 Z"/></g>
<g><path style="opacity:1" fill="#444025" d="M 116.5,228.5 C 114.049,231.277 111.049,233.277 107.5,234.5C 109.975,231.759 112.975,229.759 116.5,228.5 Z"/></g>
<g><path style="opacity:1" fill="#e9e9e9" d="M 51.5,232.5 C 52.0554,235.353 51.2221,238.019 49,240.5C 48.3292,239.748 47.4959,239.414 46.5,239.5C 46.0472,238.542 45.3805,237.708 44.5,237C 45.641,234.298 44.641,232.631 41.5,232C 43.0488,230.786 44.2155,229.286 45,227.5C 46.5579,230.021 48.7245,231.688 51.5,232.5 Z"/></g>
<g><path style="opacity:0.043" fill="#1d1b1e" d="M 142.5,223.5 C 140.118,228.248 136.784,232.248 132.5,235.5C 131.833,235.5 131.5,235.167 131.5,234.5C 135.395,231.027 139.061,227.36 142.5,223.5 Z"/></g>
<g><path style="opacity:1" fill="#ee5623" d="M 507.5,229.5 C 508.573,230.251 508.74,231.251 508,232.5C 506.903,234.053 505.57,235.386 504,236.5C 504.827,234.123 505.994,231.789 507.5,229.5 Z"/></g>
<g><path style="opacity:1" fill="#6e6d6c" d="M 51.5,232.5 C 54.117,233.786 56.4504,235.453 58.5,237.5C 56.1877,238.32 53.8543,239.153 51.5,240C 54.6457,240.11 55.6457,241.443 54.5,244C 55.3805,244.708 56.0472,245.542 56.5,246.5C 52.6082,244.938 49.2749,242.605 46.5,239.5C 47.4959,239.414 48.3292,239.748 49,240.5C 51.2221,238.019 52.0554,235.353 51.5,232.5 Z"/></g>
<g><path style="opacity:1" fill="#464430" d="M 105.5,235.5 C 102.753,238.207 99.4201,239.873 95.5,240.5C 98.5154,238.326 101.849,236.659 105.5,235.5 Z"/></g>
<g><path style="opacity:1" fill="#f14f21" d="M 587.5,234.5 C 588.077,233.227 588.743,233.227 589.5,234.5C 590.833,235.62 591.333,236.953 591,238.5C 589.595,237.269 588.429,235.936 587.5,234.5 Z"/></g>
<g><path style="opacity:1" fill="#efefef" d="M 58.5,237.5 C 62.1559,240.663 66.1559,243.329 70.5,245.5C 68.0637,245.683 65.897,245.016 64,243.5C 65,245.5 66,247.5 67,249.5C 63.4969,249.381 59.9969,248.381 56.5,246.5C 56.0472,245.542 55.3805,244.708 54.5,244C 55.6457,241.443 54.6457,240.11 51.5,240C 53.8543,239.153 56.1877,238.32 58.5,237.5 Z"/></g>
<g><path style="opacity:1" fill="#4d4a39" d="M 58.5,237.5 C 64.3327,240.249 69.9994,243.249 75.5,246.5C 73.7839,246.371 72.1172,246.038 70.5,245.5C 66.1559,243.329 62.1559,240.663 58.5,237.5 Z"/></g>
<g><path style="opacity:1" fill="#f14d1a" d="M 513.5,233.5 C 514.043,233.56 514.376,233.893 514.5,234.5C 513.097,236.731 511.93,239.064 511,241.5C 510.333,240.167 510.333,238.833 511,237.5C 512.095,236.307 512.928,234.973 513.5,233.5 Z"/></g>
<g><path style="opacity:1" fill="#615c43" d="M 73.5,238.5 C 77.8155,239.797 82.1488,241.131 86.5,242.5C 88.5122,242.16 90.5122,241.827 92.5,241.5C 90.9192,243.086 88.9192,244.086 86.5,244.5C 81.725,243.252 77.3917,241.252 73.5,238.5 Z"/></g>
<g><path style="opacity:1" fill="#3b3a3a" d="M 124.5,241.5 C 122.853,243.326 120.853,244.66 118.5,245.5C 119.552,243.345 118.886,243.012 116.5,244.5C 113.657,240.498 114.157,239.832 118,242.5C 118.5,242.167 119,241.833 119.5,241.5C 115.555,238.723 115.888,238.057 120.5,239.5C 120.343,238.127 120.51,236.793 121,235.5C 121.5,237.333 122.667,238.5 124.5,239C 122.709,239.415 121.376,240.415 120.5,242C 121.819,242.195 123.153,242.028 124.5,241.5 Z"/></g>
<g><path style="opacity:1" fill="#ee794d" d="M 574.5,239.5 C 575.497,239.47 576.164,239.97 576.5,241C 580.153,248.004 578.82,249.171 572.5,244.5C 572.5,246.167 572.5,247.833 572.5,249.5C 570.713,247.142 569.713,244.475 569.5,241.5C 571.929,241.585 573.929,242.585 575.5,244.5C 575.833,244.333 576.167,244.167 576.5,244C 575.418,242.67 574.751,241.17 574.5,239.5 Z"/></g>
<g><path style="opacity:1" fill="#f06436" d="M 520.5,239.5 C 520.794,241.276 520.96,243.276 521,245.5C 525.666,247.052 525.499,247.552 520.5,247C 518.112,244.597 518.112,242.097 520.5,239.5 Z"/></g>
<g><path style="opacity:1" fill="#f57646" d="M 528.5,240.5 C 529.473,240.987 530.473,241.487 531.5,242C 530.133,244.301 529.466,246.801 529.5,249.5C 528.448,249.649 527.448,249.483 526.5,249C 527.991,246.379 528.658,243.545 528.5,240.5 Z"/></g>
<g><path style="opacity:1" fill="#f78c64" d="M 533.5,242.5 C 534.675,242.281 535.675,242.614 536.5,243.5C 535.215,246.021 534.548,248.687 534.5,251.5C 533.325,251.719 532.325,251.386 531.5,250.5C 533.229,248.149 533.896,245.482 533.5,242.5 Z"/></g>
<g><path style="opacity:1" fill="#ed7b51" d="M 581.5,236.5 C 582.882,237.801 584.548,238.634 586.5,239C 585.357,242.697 586.19,243.197 589,240.5C 589.163,242.731 587.997,244.065 585.5,244.5C 583.713,242.05 582.38,239.384 581.5,236.5 Z"/></g>
<g><path style="opacity:1" fill="#f75019" d="M 538.5,243.5 C 539.643,246.068 539.476,248.735 538,251.5C 537.57,248.808 537.737,246.141 538.5,243.5 Z"/></g>
<g><path style="opacity:1" fill="#f3956f" d="M 541.5,243.5 C 542.675,243.281 543.675,243.614 544.5,244.5C 546.231,249.613 547.564,249.613 548.5,244.5C 548.833,245 549.167,245.5 549.5,246C 548.873,248.135 548.373,250.302 548,252.5C 546.426,251.016 545.093,249.349 544,247.5C 543.798,249.256 543.298,250.922 542.5,252.5C 541.516,249.572 541.183,246.572 541.5,243.5 Z"/></g>
<g><path style="opacity:1" fill="#858483" d="M 130.5,224.5 C 130.586,225.496 130.252,226.329 129.5,227C 132.167,228.667 132.167,230.333 129.5,232C 130.066,232.995 130.733,233.828 131.5,234.5C 131.5,235.167 131.833,235.5 132.5,235.5C 130.14,237.853 127.473,239.853 124.5,241.5C 123.153,242.028 121.819,242.195 120.5,242C 121.376,240.415 122.709,239.415 124.5,239C 122.667,238.5 121.5,237.333 121,235.5C 120.51,236.793 120.343,238.127 120.5,239.5C 115.888,238.057 115.555,238.723 119.5,241.5C 119,241.833 118.5,242.167 118,242.5C 114.157,239.832 113.657,240.498 116.5,244.5C 118.886,243.012 119.552,243.345 118.5,245.5C 109.506,251.993 99.5056,256.327 88.5,258.5C 91.2502,256.992 92.0836,254.659 91,251.5C 88.3927,250.877 85.8927,250.21 83.5,249.5C 86.5682,249.453 89.5682,248.953 92.5,248C 106.973,242.938 119.64,235.105 130.5,224.5 Z"/></g>
<g><path style="opacity:1" fill="#f28b60" d="M 553.5,244.5 C 555.555,246.234 556.888,248.567 557.5,251.5C 557.333,251.833 557.167,252.167 557,252.5C 555.89,250.963 554.39,250.297 552.5,250.5C 552.719,251.675 552.386,252.675 551.5,253.5C 551.167,253.167 550.833,252.833 550.5,252.5C 551.513,249.812 552.513,247.146 553.5,244.5 Z"/></g>
<g><path style="opacity:1" fill="#494847" d="M 75.5,246.5 C 78.4432,246.98 81.1098,247.98 83.5,249.5C 82.1779,249.33 81.0113,249.663 80,250.5C 79.5774,249.044 78.7441,248.544 77.5,249C 79.2446,250.692 79.5779,252.525 78.5,254.5C 76.5175,252.19 75.5175,249.523 75.5,246.5 Z"/></g>
<g><path style="opacity:1" fill="#eeeeef" d="M 70.5,245.5 C 72.1172,246.038 73.7839,246.371 75.5,246.5C 75.5175,249.523 76.5175,252.19 78.5,254.5C 79.5779,252.525 79.2446,250.692 77.5,249C 78.7441,248.544 79.5774,249.044 80,250.5C 81.0113,249.663 82.1779,249.33 83.5,249.5C 85.8927,250.21 88.3927,250.877 91,251.5C 92.0836,254.659 91.2502,256.992 88.5,258.5C 83.6866,257.507 79.0199,256.007 74.5,254C 74.9574,253.586 75.2907,253.086 75.5,252.5C 74.1369,251.107 73.3036,249.441 73,247.5C 72.3333,248.167 71.6667,248.833 71,249.5C 71.3554,248.041 71.1888,246.707 70.5,245.5 Z"/></g>
<g><path style="opacity:1" fill="#f57f52" d="M 562.5,244.5 C 562.56,243.957 562.893,243.624 563.5,243.5C 564.364,245.197 565.697,246.363 567.5,247C 565.314,247.604 565.148,248.77 567,250.5C 569.173,247.723 569.673,247.89 568.5,251C 567.207,251.49 565.873,251.657 564.5,251.5C 564.829,248.772 564.163,246.438 562.5,244.5 Z"/></g>
<g><path style="opacity:1" fill="#616161" d="M 70.5,245.5 C 71.1888,246.707 71.3554,248.041 71,249.5C 71.6667,248.833 72.3333,248.167 73,247.5C 73.3036,249.441 74.1369,251.107 75.5,252.5C 75.2907,253.086 74.9574,253.586 74.5,254C 79.0199,256.007 83.6866,257.507 88.5,258.5C 84.8976,259.208 81.2309,258.708 77.5,257C 69.8811,254.524 62.8811,251.024 56.5,246.5C 59.9969,248.381 63.4969,249.381 67,249.5C 66,247.5 65,245.5 64,243.5C 65.897,245.016 68.0637,245.683 70.5,245.5 Z"/></g>
</svg>
