<?xml version="1.0" encoding="UTF-8"?>
<svg xmlns="http://www.w3.org/2000/svg" width="200" height="200" viewBox="0 0 200 200">
  <!-- Fondo circular con gradiente -->
  <defs>
    <linearGradient id="grad1" x1="0%" y1="0%" x2="100%" y2="100%">
      <stop offset="0%" style="stop-color:#9b59b6;stop-opacity:1" />
      <stop offset="100%" style="stop-color:#2c3e50;stop-opacity:1" />
    </linearGradient>
  </defs>
  <circle cx="100" cy="100" r="100" fill="url(#grad1)" />
  
  <!-- Silueta de estudiante femenina -->
  <g transform="translate(100, 100)">
    <!-- Cabeza -->
    <circle cx="0" cy="-40" r="30" fill="#ecf0f1" />
    
    <!-- Cabello largo -->
    <path d="M-30,-40 C-35,-20 -40,0 -30,20 C-20,30 -10,35 0,35 C10,35 20,30 30,20 C40,0 35,-20 30,-40 Z" fill="#8e44ad" />
    <path d="M-25,-60 C-30,-70 -15,-75 0,-75 C15,-75 30,-70 25,-60 Z" fill="#8e44ad" />
    
    <!-- Cuerpo con uniforme escolar -->
    <path d="M-30,-10 C-40,20 -30,50 0,50 C30,50 40,20 30,-10 Z" fill="#9b59b6" />
    
    <!-- Cuello de camisa -->
    <path d="M-15,-10 L0,10 L15,-10" fill="none" stroke="#ecf0f1" stroke-width="5" stroke-linejoin="round" />
    
    <!-- Libros -->
    <g transform="translate(-25, 20) rotate(-10)">
      <rect x="-15" y="-10" width="30" height="20" rx="2" fill="#e74c3c" />
      <rect x="-12" y="-15" width="24" height="5" rx="1" fill="#c0392b" />
    </g>
  </g>
  
  <!-- Detalles faciales -->
  <g transform="translate(100, 60)">
    <!-- Ojos -->
    <g transform="translate(-10, 0)">
      <circle cx="0" cy="0" r="5" fill="#ffffff" />
      <circle cx="0" cy="0" r="2.5" fill="#34495e" />
    </g>
    <g transform="translate(10, 0)">
      <circle cx="0" cy="0" r="5" fill="#ffffff" />
      <circle cx="0" cy="0" r="2.5" fill="#34495e" />
    </g>
    
    <!-- Pestañas -->
    <g stroke="#34495e" stroke-width="1.5" stroke-linecap="round">
      <path d="M-13,-3 L-16,-6" />
      <path d="M-10,-5 L-10,-9" />
      <path d="M-7,-3 L-4,-6" />
      
      <path d="M13,-3 L16,-6" />
      <path d="M10,-5 L10,-9" />
      <path d="M7,-3 L4,-6" />
    </g>
    
    <!-- Sonrisa -->
    <path d="M-15,15 Q0,25 15,15" fill="none" stroke="#34495e" stroke-width="2" stroke-linecap="round" />
  </g>
  
  <!-- Accesorios: Auriculares -->
  <path d="M70,40 C60,20 70,10 100,10 C130,10 140,20 130,40" fill="none" stroke="#34495e" stroke-width="3" stroke-linecap="round" />
  <rect x="65" y="40" width="10" height="15" rx="5" fill="#34495e" />
  <rect x="125" y="40" width="10" height="15" rx="5" fill="#34495e" />
</svg>