<?xml version="1.0" encoding="UTF-8"?>
<svg xmlns="http://www.w3.org/2000/svg" width="200" height="200" viewBox="0 0 200 200">
  <!-- Fondo circular con gradiente -->
  <defs>
    <linearGradient id="grad1" x1="0%" y1="0%" x2="100%" y2="100%">
      <stop offset="0%" style="stop-color:#e74c3c;stop-opacity:1" />
      <stop offset="100%" style="stop-color:#2c3e50;stop-opacity:1" />
    </linearGradient>
  </defs>
  <circle cx="100" cy="100" r="100" fill="url(#grad1)" />
  
  <!-- Silueta de padre con hijo/a -->
  <g transform="translate(100, 100)">
    <!-- Adulto (padre) -->
    <g transform="translate(-20, 0)">
      <!-- Cabeza -->
      <circle cx="0" cy="-40" r="25" fill="#ecf0f1" />
      
      <!-- Cabello -->
      <path d="M-20,-50 C-25,-65 -10,-70 0,-70 C10,-70 25,-65 20,-50 Z" fill="#34495e" />
      
      <!-- Cuerpo -->
      <path d="M-25,-15 C-30,20 -20,50 0,50 C20,50 30,20 25,-15 Z" fill="#3498db" />
      
      <!-- Brazo extendido -->
      <path d="M25,-15 C40,-10 50,0 40,20" fill="none" stroke="#3498db" stroke-width="10" stroke-linecap="round" />
    </g>
    
    <!-- Niño/a -->
    <g transform="translate(30, 10) scale(0.7)">
      <!-- Cabeza -->
      <circle cx="0" cy="-40" r="25" fill="#ecf0f1" />
      
      <!-- Cabello -->
      <path d="M-20,-50 C-25,-65 -10,-70 0,-70 C10,-70 25,-65 20,-50 Z" fill="#e67e22" />
      
      <!-- Cuerpo -->
      <path d="M-25,-15 C-30,20 -20,50 0,50 C20,50 30,20 25,-15 Z" fill="#e74c3c" />
    </g>
  </g>
  
  <!-- Detalles faciales adulto -->
  <g transform="translate(80, 60)">
    <!-- Ojos -->
    <circle cx="-8" cy="0" r="3" fill="#34495e" />
    <circle cx="8" cy="0" r="3" fill="#34495e" />
    
    <!-- Sonrisa -->
    <path d="M-12,10 Q0,20 12,10" fill="none" stroke="#34495e" stroke-width="2" stroke-linecap="round" />
    
    <!-- Cejas -->
    <path d="M-12,-8 L-4,-5" fill="none" stroke="#34495e" stroke-width="2" stroke-linecap="round" />
    <path d="M12,-8 L4,-5" fill="none" stroke="#34495e" stroke-width="2" stroke-linecap="round" />
  </g>
  
  <!-- Detalles faciales niño/a -->
  <g transform="translate(130, 70)">
    <!-- Ojos -->
    <circle cx="-6" cy="0" r="2" fill="#34495e" />
    <circle cx="6" cy="0" r="2" fill="#34495e" />
    
    <!-- Sonrisa -->
    <path d="M-8,8 Q0,15 8,8" fill="none" stroke="#34495e" stroke-width="1.5" stroke-linecap="round" />
  </g>
</svg>